<svg width="80" height="80" viewBox="0 0 80 80" fill="none" xmlns="http://www.w3.org/2000/svg">
<path fill-rule="evenodd" clip-rule="evenodd" d="M68.4486 21.6917L70.1059 20.0342L80 29.9283L29.9283 80L20.0342 70.1059L21.6917 68.4484C23.0459 67.0941 23.7917 65.2934 23.7917 63.3783C23.7917 61.4631 23.0459 59.6625 21.6917 58.3083C20.3373 56.9541 18.537 56.2083 16.6217 56.2083C14.7064 56.2083 12.9058 56.9541 11.5516 58.3083L9.89406 59.9658L0 50.0717L50.0717 0L59.9659 9.89406L58.3084 11.5516C56.9542 12.9059 56.2084 14.7066 56.2084 16.6217C56.2084 18.5369 56.9542 20.3375 58.3084 21.6917C59.6628 23.0459 61.4631 23.7917 63.3784 23.7917C65.2937 23.7917 67.0944 23.0459 68.4486 21.6917ZM28.48 63.3783C28.48 65.7495 27.7886 68.0145 26.5016 69.9431L29.9283 73.37L73.37 29.9283L69.9431 26.5016C68.0145 27.7886 65.7495 28.48 63.3783 28.48C60.2109 28.48 57.233 27.2466 54.9933 25.0067C52.7534 22.767 51.52 19.7892 51.52 16.6217C51.52 14.2505 52.2114 11.9855 53.4984 10.0569L50.0717 6.63L6.63 50.0717L10.0569 53.4984C11.9855 52.2114 14.2505 51.52 16.6217 51.52C19.7891 51.52 22.767 52.7534 25.0067 54.9933C27.2466 57.233 28.48 60.2108 28.48 63.3783Z" fill="black"/>
<rect x="43.3965" y="33.275" width="4.68808" height="4.70683" transform="rotate(-45 43.3965 33.275)" fill="black"/>
<path d="M36.7422 26.6165L40.0572 23.3015L43.3854 26.6297L40.0704 29.9447L36.7422 26.6165Z" fill="black"/>
<rect x="50.0547" y="39.9314" width="4.68808" height="4.70683" transform="rotate(-45 50.0547 39.9314)" fill="black"/>
</svg>
