<svg width="100" height="80" viewBox="0 0 100 80" fill="none" xmlns="http://www.w3.org/2000/svg">
<path fill-rule="evenodd" clip-rule="evenodd" d="M78.2597 0.652174L99.4272 21.6304C100.191 22.3913 100.191 23.587 99.4272 24.3478L82.9514 40.7609C82.1877 41.5217 80.9875 41.5217 80.2237 40.7609L78.8052 39.3478V78.0435C78.8052 79.1304 77.9324 80 76.8412 80H23.2679C22.1768 80 21.3039 79.1304 21.3039 78.0435V39.2391L19.7763 40.7609C19.0125 41.5217 17.8123 41.5217 17.0486 40.7609L0.572831 24.3478C-0.190944 23.587 -0.190944 22.3913 0.572831 21.6304L21.8494 0.543478C22.2859 0.217391 22.8314 0 23.2679 0H38.216C39.3071 0 40.0709 0.869565 40.18 1.84783C40.5074 6.95652 44.8718 10.9783 50 10.9783C55.1282 10.9783 59.4926 6.95652 59.82 1.84783C59.9291 0.76087 60.802 0 61.784 0H76.8412C77.3868 0 77.9324 0.217391 78.2597 0.652174ZM78.0639 31.8904L81.4294 35.1952L95 21.7628L75.8926 3H63.4077C62.2135 9.18318 56.5682 13.7673 50.0543 13.7673C43.5404 13.7673 38.0036 9.18318 36.5923 3.10661H24.1074L5 21.8694L18.5706 35.1952L22.0446 31.7838C22.696 31.2507 23.456 31.0375 24.2159 31.3574C24.9759 31.6772 25.4101 32.4234 25.4101 33.1697V74H74.6984V33.2763C74.6984 32.4234 75.1327 31.7838 75.8926 31.464C76.6526 31.1441 77.5211 31.3574 78.0639 31.8904Z" fill="black"/>
</svg>
