<svg width="104" height="80" viewBox="0 0 104 80" fill="none" xmlns="http://www.w3.org/2000/svg">
<path fill-rule="evenodd" clip-rule="evenodd" d="M38 25.2666C38 22.7335 40.7663 21.171 42.9246 22.4637L68.416 37.7188C70.5265 38.9897 70.5309 42.0625 68.4117 43.3291L42.9246 58.5407C40.7706 59.8203 38 58.2795 38 55.7334V25.2666ZM45 31V50L61 40.5131L45 31Z" fill="black"/>
<path fill-rule="evenodd" clip-rule="evenodd" d="M17.7493 2.24166C37.921 -0.747219 66.0877 -0.747219 86.2507 2.24166C94.3193 3.43548 100.676 9.75926 102.063 17.9646C104.646 33.2031 104.646 46.7936 102.063 62.0321C100.668 70.2461 94.315 76.5656 86.255 77.7594C76.1887 79.256 64.1203 80 52.0477 80C39.9533 80 27.8547 79.2517 17.7493 77.7551C9.68067 76.5613 3.32367 70.2418 1.937 62.0278C-0.645667 46.7936 -0.645667 33.2074 1.937 17.9689C3.32367 9.75926 9.68067 3.43548 17.7493 2.24166ZM84.7837 70.8249C90.0548 70.0468 94.2128 65.8707 95.1354 60.4408C97.6215 45.7639 97.6215 33.2399 95.1354 18.5586C94.2172 13.1288 90.0548 8.957 84.7793 8.17452C74.982 6.72628 63.2399 6 51.4978 6C39.7644 6 28.0223 6.72628 18.225 8.17452C12.9452 8.96133 8.78717 13.1288 7.86461 18.5586C5.37846 33.2399 5.37846 45.7639 7.86461 60.4365C8.78284 65.8663 12.9452 70.0381 18.2207 70.8206C37.8413 73.7257 65.215 73.7257 84.7837 70.8249Z" fill="black"/>
</svg>
